<?xml version="1.0" standalone="no"?><!DOCTYPE svg PUBLIC "-//W3C//DTD SVG 1.1//EN" "http://www.w3.org/Graphics/SVG/1.1/DTD/svg11.dtd"><svg t="1751672846996" class="icon" viewBox="0 0 1024 1024" version="1.1" xmlns="http://www.w3.org/2000/svg" p-id="5321" width="32" height="32" xmlns:xlink="http://www.w3.org/1999/xlink"><path d="M0 0h1024v1024H0z" fill="#1296db" fill-opacity=".01" p-id="5322"></path><path d="M225.9968 153.6m36.203867 36.203867l579.261875 579.261875q36.203867 36.203867 0 72.407735l0 0q-36.203867 36.203867-72.407734 0l-579.261875-579.261875q-36.203867-36.203867 0-72.407735l0 0q36.203867-36.203867 72.407734 0Z" fill="#1296db" p-id="5323"></path><path d="M877.7216 225.9968m-36.203867 36.203867l-579.261875 579.261875q-36.203867 36.203867-72.407735 0l0 0q-36.203867-36.203867 0-72.407734l579.261875-579.261875q36.203867-36.203867 72.407735 0l0 0q36.203867 36.203867 0 72.407734Z" fill="#1296db" p-id="5324"></path></svg>