<?xml version="1.0" standalone="no"?><!DOCTYPE svg PUBLIC "-//W3C//DTD SVG 1.1//EN" "http://www.w3.org/Graphics/SVG/1.1/DTD/svg11.dtd"><svg t="1751635763061" class="icon" viewBox="0 0 1024 1024" version="1.1" xmlns="http://www.w3.org/2000/svg" p-id="5663" width="48" height="48" xmlns:xlink="http://www.w3.org/1999/xlink"><path d="M1001.472 194.56c0-8.192-24.576-28.672-49.152-28.672H540.672c-2.048 0-2.048 0-2.048-2.048l-75.776-79.872c-8.192-8.192-20.48-14.336-34.816-14.336H69.632C45.056 69.632 20.48 90.112 20.48 98.304v784.384c0 65.536 36.864 69.632 49.152 69.632h884.736c10.24 0 49.152-4.096 49.152-69.632l-2.048-688.128z m-169.984 442.368c-16.384 34.816-53.248 45.056-90.112 43.008-55.296 135.168-169.984 196.608-311.296 196.608-71.68 0-141.312-28.672-178.176-92.16v-2.048l-6.144-10.24c-12.288-28.672-16.384-59.392-14.336-92.16l2.048-8.192h405.504c14.336 0 28.672-2.048 43.008-6.144 6.144-4.096 14.336-6.144 20.48-10.24-8.192-10.24-12.288-24.576-14.336-40.96-2.048-18.432 4.096-45.056 14.336-59.392l6.144-8.192 8.192 6.144c20.48 14.336 36.864 36.864 38.912 61.44 22.528-6.144 51.2-4.096 71.68 8.192l8.192 4.096-4.096 10.24z m-567.296 16.384v-61.44h59.392v61.44h-59.392z m135.168-61.44v61.44h-59.392v-61.44h59.392z m-59.392-18.432v-61.44h59.392v61.44h-59.392z m137.216-61.44v61.44h-61.44v-61.44h61.44z m0 79.872v61.44h-61.44v-61.44h61.44zM552.96 512v61.44h-61.44v-61.44h61.44z m-61.44-16.384v-61.44h61.44v61.44h-61.44z m61.44 96.256v61.44h-61.44v-61.44h61.44z m75.776 0v61.44h-61.44v-61.44h61.44z m282.624-239.616c0 2.048-2.048 4.096-4.096 4.096H114.688c-2.048 0-4.096-2.048-4.096-4.096V165.888c0-2.048 2.048-4.096 4.096-4.096h292.864c2.048 0 2.048 0 2.048 2.048l92.16 94.208h405.504c2.048 0 4.096 2.048 4.096 4.096v90.112z" p-id="5664" fill="#fff"></path></svg>