<?xml version="1.0" standalone="no"?><!DOCTYPE svg PUBLIC "-//W3C//DTD SVG 1.1//EN" "http://www.w3.org/Graphics/SVG/1.1/DTD/svg11.dtd"><svg t="1751645986305" class="icon" viewBox="0 0 1049 1024" version="1.1" xmlns="http://www.w3.org/2000/svg" p-id="7629" width="49.171875" height="48" xmlns:xlink="http://www.w3.org/1999/xlink"><path d="M524.980975 0.032811c-290.051989 0-524.980975 235.060232-524.980975 524.980975 0 232.009805 150.407049 428.7454 358.955742 498.0757 26.249049 4.954508 35.862763-11.287091 35.862762-25.231898 0-12.468298-0.426547-45.509288-0.656226-89.246766-146.043145 31.662915-176.820155-70.441783-176.820154-70.441783-23.890736-60.59839-58.404133-76.778468-58.404134-76.778467-47.54359-32.54882 3.674867-31.888493 3.674867-31.888493 52.727777 3.674867 80.420523 54.07304 80.420523 54.07304 46.821741 80.285176 122.878359 57.091681 152.900709 43.671855 4.724829-33.959707 18.243089-57.091681 33.237858-70.216205-116.582689-13.124524-239.128834-58.272888-239.128834-259.439036 0-57.317259 20.343013-104.11029 54.036128-140.858958-5.906036-13.25577-23.624144-66.639772 4.593583-138.955902 0 0 43.967157-14.076052 144.369768 53.81055 41.998478-11.680827 86.621861-17.455617 131.245244-17.718108 44.623383 0.26249 89.246766 6.037281 131.245244 17.718108 99.746385-67.886602 143.713542-53.81055 143.713542-53.81055 28.217727 72.316129 10.499619 125.700132 5.249809 138.955902 33.467537 36.748668 53.81055 83.566308 53.81055 140.858958 0 201.687027-122.714303 246.084832-239.52257 258.979677 18.374334 15.749429 35.436216 47.937325 35.436216 97.121481 0 70.249017-0.656226 126.684472-0.656226 143.746353 0 13.780751 9.187167 30.186406 36.092442 24.936596C899.686146 953.496696 1049.96195 756.62883 1049.96195 524.986102c0-289.92587-235.060232-524.980975-524.980975-524.980975z" p-id="7630" fill="#e6e6e6"></path></svg>