<?xml version="1.0" standalone="no"?><!DOCTYPE svg PUBLIC "-//W3C//DTD SVG 1.1//EN" "http://www.w3.org/Graphics/SVG/1.1/DTD/svg11.dtd"><svg t="1751595063624" class="icon" viewBox="0 0 1024 1024" version="1.1" xmlns="http://www.w3.org/2000/svg" p-id="11610" xmlns:xlink="http://www.w3.org/1999/xlink" width="48" height="48"><path d="M355.491 480.636h382.19v-79.659c0-13.276-4.645-24.561-13.934-33.855-9.29-9.293-20.57-13.94-33.84-13.94H403.265c-13.27 0-24.55-4.647-33.84-13.94-9.289-9.294-13.934-20.58-13.934-33.856v-31.863c0-13.277-4.644-24.562-13.934-33.855-9.289-9.294-20.569-13.94-33.84-13.94H148.473c-13.27 0-24.55 4.646-33.84 13.94-9.29 9.293-13.934 20.578-13.934 33.855v424.682l127.397-156.829c14.597-17.591 33.84-32.112 57.726-43.563 23.887-11.451 47.11-17.177 69.67-17.177zM987 561.79c0 20.579-7.63 40.493-22.892 59.744L817.304 802.26c-14.266 17.591-33.508 32.112-57.727 43.564C735.36 857.274 712.136 863 689.907 863H148.472c-30.522 0-56.731-10.953-78.628-32.86C47.948 808.235 37 782.014 37 751.478V273.523c0-30.536 10.948-56.757 32.844-78.664C91.741 172.953 117.95 162 148.472 162h159.246c30.522 0 56.73 10.953 78.627 32.86 21.897 21.906 32.845 48.127 32.845 78.663v15.932h270.717c30.523 0 56.731 10.953 78.628 32.859 21.896 21.906 32.844 48.127 32.844 78.663v79.66h95.548c17.915 0 34.337 4.065 49.266 12.197 14.93 8.132 26.044 19.832 33.342 35.1 4.977 10.621 7.465 21.906 7.465 33.855z" fill="#7C85A2" p-id="11611"></path></svg>