<?xml version="1.0" standalone="no"?><!DOCTYPE svg PUBLIC "-//W3C//DTD SVG 1.1//EN" "http://www.w3.org/Graphics/SVG/1.1/DTD/svg11.dtd"><svg t="1751597904457" class="icon" viewBox="0 0 1024 1024" version="1.1" xmlns="http://www.w3.org/2000/svg" p-id="3045" xmlns:xlink="http://www.w3.org/1999/xlink" width="32" height="32"><path d="M727.893333 194.275556h56.888889v142.222222h-56.888889z" fill="#009245" p-id="3046"></path><path d="M716.145778 153.884444l40.220444-40.248888 120.689778 120.689777-40.220444 40.220445z" fill="#009245" p-id="3047"></path><path d="M756.337778 113.948444l40.220444 40.220445-120.689778 120.689778-40.220444-40.220445zM784.782222 829.724444h-56.888889v-142.222222h56.888889z" fill="#009245" p-id="3048"></path><path d="M796.643556 870.200889l-40.220445 40.220444-120.689778-120.689777 40.248889-40.220445z" fill="#009245" p-id="3049"></path><path d="M756.224 910.108444l-40.220444-40.220444 120.661333-120.689778 40.248889 40.220445zM137.386667 938.666667V85.333333h227.555555v853.333334zM642.56 625.777778v-227.555556h227.555556v227.555556zM734.72 142.222222V85.333333h85.333333v56.888889zM620.942222 142.222222V85.333333h85.333334v56.888889zM507.164444 142.222222V85.333333h85.333334v56.888889zM393.386667 142.222222V85.333333h85.333333v56.888889z" fill="#009245" p-id="3050"></path><path d="M734.72 938.666667v-56.888889h85.333333v56.888889zM620.942222 938.666667v-56.888889h85.333334v56.888889zM507.164444 938.666667v-56.888889h85.333334v56.888889zM393.386667 938.666667v-56.888889h85.333333v56.888889z" fill="#009245" p-id="3051"></path></svg>