<?xml version="1.0" standalone="no"?><!DOCTYPE svg PUBLIC "-//W3C//DTD SVG 1.1//EN" "http://www.w3.org/Graphics/SVG/1.1/DTD/svg11.dtd"><svg t="1751597928825" class="icon" viewBox="0 0 1024 1024" version="1.1" xmlns="http://www.w3.org/2000/svg" p-id="3392" xmlns:xlink="http://www.w3.org/1999/xlink" width="32" height="32"><path d="M807.822222 732.728889v56.888889h-142.222222v-56.888889z" fill="#009245" p-id="3393"></path><path d="M848.128 720.867556l40.220444 40.220444-120.689777 120.661333-40.220445-40.220444z" fill="#009245" p-id="3394"></path><path d="M888.291556 761.116444l-40.248889 40.220445-120.661334-120.661333 40.220445-40.248889zM172.373333 789.333333v-56.888889h142.222223v56.888889z" fill="#009245" p-id="3395"></path><path d="M131.953778 801.422222l-40.220445-40.220444 120.661334-120.689778 40.220444 40.248889z" fill="#009245" p-id="3396"></path><path d="M91.761778 760.888889l40.220444-40.220445 120.689778 120.661334-40.248889 40.248889zM63.431111 142.222222h853.333333v227.555556h-853.333333zM376.32 647.395556h227.555556v227.555555h-227.555556zM859.875556 739.555556h56.888888v85.333333h-56.888888zM859.875556 625.777778h56.888888v85.333333h-56.888888zM859.875556 512h56.888888v85.333333h-56.888888zM859.875556 398.222222h56.888888v85.333334h-56.888888z" fill="#009245" p-id="3397"></path><path d="M63.431111 739.555556h56.888889v85.333333h-56.888889zM63.431111 625.777778h56.888889v85.333333h-56.888889zM63.431111 512h56.888889v85.333333h-56.888889zM63.431111 398.222222h56.888889v85.333334h-56.888889z" fill="#009245" p-id="3398"></path></svg>