<?xml version="1.0" standalone="no"?><!DOCTYPE svg PUBLIC "-//W3C//DTD SVG 1.1//EN" "http://www.w3.org/Graphics/SVG/1.1/DTD/svg11.dtd"><svg t="1751597940065" class="icon" viewBox="0 0 1024 1024" version="1.1" xmlns="http://www.w3.org/2000/svg" p-id="3565" xmlns:xlink="http://www.w3.org/1999/xlink" width="32" height="32"><path d="M820.053333 682.666667h56.888889v227.555555h-56.888889z" fill="#009245" p-id="3566"></path><path d="M649.386667 910.222222v-56.888889h227.555555v56.888889zM308.053333 853.333333v56.888889h-227.555555v-56.888889z" fill="#009245" p-id="3567"></path><path d="M80.497778 682.666667h56.888889v227.555555h-56.888889zM820.053333 113.777778h56.888889v227.555555h-56.888889z" fill="#009245" p-id="3568"></path><path d="M876.942222 113.777778v56.888889h-227.555555V113.777778zM80.497778 170.666667V113.777778h227.555555v56.888889z" fill="#009245" p-id="3569"></path><path d="M80.497778 113.777778h56.888889v227.555555h-56.888889zM160.711111 540.444444v-56.888888h142.222222v56.888888z" fill="#009245" p-id="3570"></path><path d="M120.661333 552.163556l-40.248889-40.220445 120.689778-120.661333 40.220445 40.220444z" fill="#009245" p-id="3571"></path><path d="M80.270222 511.886222l40.220445-40.248889 120.689777 120.689778-40.248888 40.220445zM796.444444 483.555556v56.888888h-142.222222v-56.888888z" fill="#009245" p-id="3572"></path><path d="M836.778667 471.779556L876.999111 512l-120.661333 120.661333-40.220445-40.220444z" fill="#009245" p-id="3573"></path><path d="M876.629333 512.056889l-40.248889 40.248889-120.661333-120.689778 40.220445-40.220444zM450.275556 194.275556h56.888888v142.222222h-56.888888z" fill="#009245" p-id="3574"></path><path d="M438.300444 154.112l40.220445-40.248889 120.689778 120.689778L558.933333 274.773333z" fill="#009245" p-id="3575"></path><path d="M478.464 113.720889l40.220444 40.220444-120.661333 120.661334-40.220444-40.220445zM506.88 829.724444h-56.888889v-142.222222h56.888889z" fill="#009245" p-id="3576"></path><path d="M518.997333 869.944889L478.72 910.222222l-120.661333-120.689778 40.220444-40.220444z" fill="#009245" p-id="3577"></path><path d="M478.549333 910.336L438.328889 870.115556l120.689778-120.661334 40.220444 40.220445zM364.942222 625.777778v-227.555556h227.555556v227.555556z" fill="#009245" p-id="3578"></path></svg>